<svg width="122" height="28" viewBox="0 0 122 28" fill="none" xmlns="http://www.w3.org/2000/svg">
<g clip-path="url(#clip0_7_69)">
<path d="M27 8.60563C27 4.40516 23.6421 1 19.5 1C15.3579 1 12 4.40516 12 8.60563C12 12.8061 15.3579 16.2113 19.5 16.2113C23.6421 16.2113 27 12.8061 27 8.60563Z" fill="#353015"/>
<path d="M16.8307 5.97638H18.5962V5.33218H20.5762V5.97638H22.3417V7.27314H16.8307V5.97638ZM17.0122 8.97148C17.0122 8.7149 17.0755 8.48902 17.202 8.29382C17.3285 8.09862 17.5045 7.93407 17.73 7.80021C17.961 7.66635 18.2332 7.56596 18.5467 7.49903C18.8602 7.4321 19.2067 7.39863 19.5862 7.39863C19.9657 7.39863 20.3122 7.4321 20.6257 7.49903C20.9392 7.56596 21.2088 7.66635 21.4342 7.80021C21.6652 7.93407 21.844 8.09862 21.9705 8.29382C22.097 8.48902 22.1603 8.7149 22.1603 8.97148V9.33959C22.1603 9.59058 22.097 9.81369 21.9705 10.0089C21.844 10.2041 21.6652 10.3686 21.4342 10.5025C21.2088 10.6364 20.9392 10.7395 20.6257 10.812C20.3122 10.879 19.9657 10.9124 19.5862 10.9124C19.2067 10.9124 18.8602 10.879 18.5467 10.812C18.2332 10.7395 17.961 10.6364 17.73 10.5025C17.5045 10.3686 17.3285 10.2041 17.202 10.0089C17.0755 9.81369 17.0122 9.59058 17.0122 9.33959V8.97148ZM19.5862 7.67472C19.5753 7.93129 19.512 8.14882 19.3965 8.32728C19.281 8.5002 19.1298 8.64242 18.9427 8.75396C18.7612 8.85994 18.5467 8.93801 18.2992 8.98821C18.0573 9.03841 17.7987 9.06628 17.5237 9.07187C17.8042 9.07746 18.0682 9.11648 18.3157 9.189C18.5688 9.26152 18.7887 9.36747 18.9757 9.50692C19.1628 9.64078 19.3113 9.8081 19.4212 10.0089C19.5312 10.2097 19.5862 10.4439 19.5862 10.7116C19.5862 10.4439 19.6413 10.2097 19.7512 10.0089C19.8612 9.8081 20.007 9.64078 20.1885 9.50692C20.3755 9.36747 20.5928 9.26152 20.8403 9.189C21.0933 9.11648 21.36 9.07746 21.6405 9.07187C21.3655 9.06628 21.1042 9.03841 20.8567 8.98821C20.6148 8.93801 20.4003 8.85994 20.2132 8.75396C20.0317 8.64242 19.8832 8.5002 19.7677 8.32728C19.6578 8.14882 19.5972 7.93129 19.5862 7.67472Z" fill="#FBF5EA"/>
<path d="M15 8.60563C15 4.40516 11.6421 1 7.5 1C3.35786 1 0 4.40516 0 8.60563C0 12.8061 3.35786 16.2113 7.5 16.2113C11.6421 16.2113 15 12.8061 15 8.60563Z" fill="#353015"/>
<path d="M4.9875 7.73326C4.9875 7.49901 5.037 7.27035 5.136 7.04724C5.24052 6.81857 5.39727 6.61497 5.60625 6.4365C5.82075 6.25245 6.09027 6.10745 6.41475 6.00146C6.74475 5.88992 7.13524 5.83414 7.58625 5.83414C8.03727 5.83414 8.42502 5.88992 8.7495 6.00146C9.0795 6.10745 9.34902 6.25245 9.558 6.4365C9.7725 6.61497 9.92925 6.81857 10.0283 7.04724C10.1328 7.27035 10.185 7.49901 10.185 7.73326V8.69538C10.185 8.92963 10.1328 9.16111 10.0283 9.38977C9.92925 9.61843 9.7725 9.82204 9.558 10.0005C9.34902 10.179 9.0795 10.324 8.7495 10.4355C8.42502 10.5471 8.03727 10.6029 7.58625 10.6029C7.13524 10.6029 6.74475 10.5471 6.41475 10.4355C6.09027 10.324 5.82075 10.179 5.60625 10.0005C5.39727 9.82204 5.24052 9.61843 5.136 9.38977C5.037 9.16111 4.9875 8.92963 4.9875 8.69538V7.73326ZM7.58625 6.00983C7.58625 6.4114 7.51474 6.75164 7.37175 7.0305C7.22877 7.30936 7.04175 7.53807 6.81075 7.71653C6.58527 7.88945 6.32952 8.01771 6.0435 8.10138C5.75749 8.17945 5.47152 8.22128 5.1855 8.22687C5.47152 8.23246 5.75749 8.27429 6.0435 8.35236C6.32952 8.43043 6.58527 8.55593 6.81075 8.72884C7.04175 8.90176 7.22877 9.12764 7.37175 9.4065C7.51474 9.68536 7.58625 10.0256 7.58625 10.4272C7.58625 10.0256 7.65777 9.68536 7.80075 9.4065C7.94374 9.12764 8.12802 8.90176 8.3535 8.72884C8.5845 8.55593 8.84025 8.43043 9.12075 8.35236C9.40677 8.27429 9.69274 8.22965 9.97875 8.2185C9.69274 8.21291 9.40677 8.17108 9.12075 8.09301C8.84025 8.00935 8.5845 7.88108 8.3535 7.70816C8.12802 7.53525 7.94374 7.30936 7.80075 7.0305C7.65777 6.75164 7.58625 6.4114 7.58625 6.00983Z" fill="#FBF5EA"/>
<path d="M15 20.3944C15 16.1939 11.6421 12.7887 7.5 12.7887C3.35786 12.7887 0 16.1939 0 20.3944C0 24.5948 3.35786 28 7.5 28C11.6421 28 15 24.5948 15 20.3944Z" fill="#353015"/>
<path d="M4.9875 17.6814H10.185V22.333H4.9875V17.6814ZM7.58625 17.7986C7.58625 18.2001 7.51474 18.5404 7.37175 18.8192C7.22877 19.0981 7.04175 19.3268 6.81075 19.5053C6.58527 19.6782 6.32952 19.8064 6.0435 19.8901C5.75749 19.9682 5.47152 20.01 5.1855 20.0156C5.47152 20.0212 5.75749 20.063 6.0435 20.1411C6.32952 20.2192 6.58527 20.3447 6.81075 20.5176C7.04175 20.6905 7.22877 20.9164 7.37175 21.1952C7.51474 21.4741 7.58625 21.8143 7.58625 22.2159C7.58625 21.8143 7.65777 21.4741 7.80075 21.1952C7.94374 20.9164 8.12802 20.6905 8.3535 20.5176C8.5845 20.3447 8.84025 20.2192 9.12075 20.1411C9.40677 20.063 9.69274 20.0184 9.97875 20.0072C9.69274 20.0016 9.40677 19.9598 9.12075 19.8817C8.84025 19.7981 8.5845 19.6698 8.3535 19.4969C8.12802 19.324 7.94374 19.0981 7.80075 18.8192C7.65777 18.5404 7.58625 18.2001 7.58625 17.7986Z" fill="#FBF5EA"/>
<path d="M27 20.3944C27 16.1939 23.6421 12.7887 19.5 12.7887C15.3579 12.7887 12 16.1939 12 20.3944C12 24.5948 15.3579 28 19.5 28C23.6421 28 27 24.5948 27 20.3944Z" fill="#353015"/>
<path d="M19.644 22.5004C19.732 22.1768 19.8063 21.8813 19.8668 21.6135C19.9328 21.3402 19.9878 21.0725 20.0318 20.8104C20.0813 20.5427 20.1198 20.2722 20.1473 19.9989C20.1747 19.72 20.1968 19.4076 20.2133 19.0618H16.9628V17.6814H22.2015C22.185 18.1053 22.1658 18.518 22.1438 18.9196C22.1273 19.3212 22.097 19.72 22.053 20.116C22.0145 20.512 21.9595 20.908 21.888 21.304C21.822 21.7 21.734 22.0988 21.624 22.5004H19.644Z" fill="#FBF5EA"/>
</g>
<path d="M50.8 18.904C50.8 19.112 50.696 19.216 50.488 19.216H48.352C48.144 19.216 48.04 19.112 48.04 18.904V13.768H42.976C42.448 14.328 41.816 14.768 41.08 15.088C40.36 15.392 39.544 15.544 38.632 15.544C37.768 15.544 36.984 15.4 36.28 15.112C35.576 14.808 34.968 14.4 34.456 13.888C33.944 13.36 33.544 12.744 33.256 12.04C32.984 11.336 32.848 10.584 32.848 9.784C32.848 9.016 32.984 8.288 33.256 7.6C33.544 6.896 33.944 6.28 34.456 5.752C34.968 5.224 35.576 4.808 36.28 4.504C36.984 4.184 37.768 4.024 38.632 4.024C39.688 4.024 40.624 4.248 41.44 4.696C42.256 5.128 42.92 5.712 43.432 6.448H48.04V3.328C48.04 3.12 48.144 3.016 48.352 3.016H50.488C50.696 3.016 50.8 3.12 50.8 3.328V18.904ZM51.52 25.096C51.52 25.192 51.48 25.264 51.4 25.312C51.32 25.36 51.24 25.384 51.16 25.384H38.632C37.912 25.384 37.424 25.256 37.168 25C36.928 24.744 36.808 24.304 36.808 23.68V18.496C36.808 18.416 36.84 18.336 36.904 18.256C36.984 18.176 37.064 18.136 37.144 18.136H39.208C39.304 18.136 39.384 18.176 39.448 18.256C39.528 18.32 39.568 18.4 39.568 18.496V22.696C39.568 22.856 39.6 22.96 39.664 23.008C39.728 23.056 39.84 23.08 40 23.08H51.16C51.24 23.08 51.32 23.112 51.4 23.176C51.48 23.24 51.52 23.312 51.52 23.392V25.096ZM41.8 9.832C41.8 9.352 41.72 8.912 41.56 8.512C41.416 8.096 41.2 7.744 40.912 7.456C40.64 7.152 40.312 6.912 39.928 6.736C39.544 6.56 39.112 6.472 38.632 6.472C38.168 6.472 37.744 6.56 37.36 6.736C36.976 6.912 36.648 7.152 36.376 7.456C36.104 7.744 35.888 8.096 35.728 8.512C35.584 8.912 35.512 9.352 35.512 9.832C35.512 10.312 35.584 10.76 35.728 11.176C35.888 11.592 36.104 11.952 36.376 12.256C36.648 12.56 36.976 12.8 37.36 12.976C37.744 13.152 38.168 13.24 38.632 13.24C39.112 13.24 39.544 13.152 39.928 12.976C40.312 12.8 40.64 12.56 40.912 12.256C41.2 11.952 41.416 11.592 41.56 11.176C41.72 10.76 41.8 10.312 41.8 9.832ZM44.512 9.784C44.512 10.392 44.424 10.984 44.248 11.56H48.04V8.632H44.392C44.424 8.824 44.448 9.016 44.464 9.208C44.496 9.4 44.512 9.592 44.512 9.784ZM73.3703 25.48C73.3703 25.688 73.2583 25.792 73.0343 25.792H70.9223C70.8423 25.792 70.7623 25.76 70.6823 25.696C70.6183 25.648 70.5863 25.576 70.5863 25.48V3.328C70.5863 3.248 70.6183 3.176 70.6823 3.112C70.7623 3.048 70.8423 3.016 70.9223 3.016H73.0343C73.2583 3.016 73.3703 3.12 73.3703 3.328V25.48ZM62.0183 12.136C61.2503 12.136 60.6103 12.32 60.0983 12.688C59.5863 13.056 59.3303 13.52 59.3303 14.08C59.3303 14.64 59.5783 15.104 60.0743 15.472C60.5863 15.824 61.2343 16 62.0183 16C62.8183 16 63.4663 15.824 63.9623 15.472C64.4743 15.104 64.7303 14.64 64.7303 14.08C64.7303 13.52 64.4743 13.056 63.9623 12.688C63.4663 12.32 62.8183 12.136 62.0183 12.136ZM62.0183 10C62.7543 10 63.4423 10.104 64.0823 10.312C64.7383 10.504 65.3063 10.784 65.7863 11.152C66.2663 11.504 66.6423 11.936 66.9143 12.448C67.1863 12.944 67.3223 13.488 67.3223 14.08C67.3223 14.688 67.1783 15.24 66.8903 15.736C66.6023 16.216 66.2103 16.64 65.7143 17.008C65.2183 17.36 64.6343 17.632 63.9623 17.824C63.3063 18.016 62.6103 18.112 61.8743 18.112C61.1543 18.112 60.4823 18.016 59.8583 17.824C59.2343 17.632 58.6903 17.36 58.2263 17.008C57.7623 16.64 57.3943 16.216 57.1223 15.736C56.8663 15.24 56.7383 14.688 56.7383 14.08C56.7383 13.488 56.8743 12.944 57.1463 12.448C57.4343 11.936 57.8183 11.504 58.2983 11.152C58.7783 10.784 59.3383 10.504 59.9783 10.312C60.6183 10.104 61.2983 10 62.0183 10ZM68.5703 8.704C68.5703 8.816 68.5303 8.912 68.4503 8.992C68.3863 9.056 68.3063 9.088 68.2103 9.088H55.5143C55.4343 9.088 55.3543 9.048 55.2743 8.968C55.1943 8.872 55.1543 8.776 55.1543 8.68V7.336C55.1543 7.256 55.1943 7.176 55.2743 7.096C55.3703 7.016 55.4583 6.976 55.5383 6.976H68.2103C68.3063 6.976 68.3863 7.016 68.4503 7.096C68.5303 7.16 68.5703 7.24 68.5703 7.336V8.704ZM65.4743 5.56C65.4743 5.656 65.4343 5.744 65.3543 5.824C65.2903 5.904 65.2023 5.944 65.0903 5.944H58.7303C58.6663 5.944 58.5863 5.912 58.4903 5.848C58.3943 5.784 58.3463 5.696 58.3463 5.584V4.192C58.3463 4.064 58.3943 3.968 58.4903 3.904C58.5863 3.84 58.6663 3.808 58.7303 3.808H65.0903C65.1863 3.808 65.2743 3.856 65.3543 3.952C65.4343 4.032 65.4743 4.12 65.4743 4.216V5.56ZM54.3623 20.104C54.3623 19.864 54.4823 19.744 54.7223 19.744C55.8583 19.776 57.0583 19.784 58.3223 19.768C59.6023 19.736 60.8743 19.696 62.1383 19.648C63.4183 19.584 64.6583 19.504 65.8583 19.408C67.0583 19.296 68.1543 19.176 69.1463 19.048C69.2263 19.032 69.3143 19.04 69.4103 19.072C69.5223 19.088 69.5863 19.16 69.6023 19.288L69.7463 20.8C69.7623 20.928 69.7383 21.032 69.6743 21.112C69.6103 21.176 69.5383 21.216 69.4583 21.232C68.5623 21.36 67.5063 21.48 66.2903 21.592C65.0743 21.704 63.7943 21.8 62.4503 21.88C61.1223 21.944 59.7863 21.992 58.4423 22.024C57.0983 22.056 55.8583 22.064 54.7223 22.048C54.6103 22.048 54.5223 22.016 54.4583 21.952C54.3943 21.872 54.3623 21.784 54.3623 21.688V20.104ZM94.6446 10.192C94.6446 10.8 94.4846 11.232 94.1646 11.488C93.8606 11.744 93.4046 11.872 92.7966 11.872H81.9486C81.2126 11.872 80.7166 11.752 80.4606 11.512C80.2206 11.256 80.1006 10.816 80.1006 10.192V5.344C80.1006 4.736 80.2526 4.304 80.5566 4.048C80.8766 3.776 81.3406 3.64 81.9486 3.64H92.7966C93.5326 3.64 94.0206 3.768 94.2606 4.024C94.5166 4.264 94.6446 4.704 94.6446 5.344V10.192ZM91.9326 6.208C91.9326 6.08 91.9086 6 91.8606 5.968C91.8126 5.92 91.7246 5.896 91.5966 5.896H83.1726C83.0286 5.896 82.9326 5.912 82.8846 5.944C82.8526 5.976 82.8366 6.056 82.8366 6.184V9.304C82.8366 9.448 82.8526 9.536 82.8846 9.568C82.9326 9.6 83.0286 9.616 83.1726 9.616H91.5966C91.7406 9.616 91.8286 9.6 91.8606 9.568C91.9086 9.536 91.9326 9.448 91.9326 9.304V6.208ZM98.1966 15.904C98.1966 15.984 98.1566 16.072 98.0766 16.168C97.9966 16.248 97.9166 16.288 97.8366 16.288H88.9566V20.632C88.9566 20.856 88.8446 20.968 88.6206 20.968H86.5326C86.3086 20.968 86.1966 20.856 86.1966 20.632V16.288H76.9326C76.8366 16.288 76.7566 16.248 76.6926 16.168C76.6286 16.072 76.5966 15.984 76.5966 15.904V14.344C76.5966 14.248 76.6286 14.168 76.6926 14.104C76.7566 14.024 76.8366 13.984 76.9326 13.984H97.8366C97.9166 13.984 97.9966 14.024 98.0766 14.104C98.1566 14.184 98.1966 14.264 98.1966 14.344V15.904ZM95.5806 24.952C95.5806 25.048 95.5406 25.12 95.4606 25.168C95.3966 25.216 95.3166 25.24 95.2206 25.24H81.6366C80.9166 25.24 80.4286 25.104 80.1726 24.832C79.9326 24.576 79.8126 24.136 79.8126 23.512V18.448C79.8126 18.368 79.8446 18.296 79.9086 18.232C79.9886 18.152 80.0686 18.112 80.1486 18.112H82.2126C82.3086 18.112 82.3886 18.152 82.4526 18.232C82.5326 18.296 82.5726 18.368 82.5726 18.448V22.552C82.5726 22.712 82.6046 22.816 82.6686 22.864C82.7326 22.912 82.8446 22.936 83.0046 22.936H95.2206C95.3006 22.936 95.3806 22.96 95.4606 23.008C95.5406 23.072 95.5806 23.144 95.5806 23.224V24.952ZM120.767 21.376C120.767 21.456 120.727 21.536 120.647 21.616C120.567 21.696 120.487 21.736 120.407 21.736H99.5029C99.4069 21.736 99.3269 21.696 99.2629 21.616C99.1989 21.536 99.1669 21.456 99.1669 21.376V19.792C99.1669 19.696 99.1989 19.616 99.2629 19.552C99.3269 19.472 99.4069 19.432 99.5029 19.432H107.567V12.76C107.567 12.52 107.679 12.4 107.903 12.4H109.991C110.215 12.4 110.327 12.52 110.327 12.76V19.432H120.407C120.487 19.432 120.567 19.472 120.647 19.552C120.727 19.632 120.767 19.712 120.767 19.792V21.376ZM118.007 6.376C118.007 8.536 117.927 10.512 117.767 12.304C117.623 14.096 117.431 15.584 117.191 16.768C117.159 16.896 117.103 17.008 117.023 17.104C116.959 17.2 116.863 17.24 116.735 17.224L114.839 17.056C114.711 17.04 114.623 16.984 114.575 16.888C114.527 16.792 114.519 16.68 114.551 16.552C114.663 15.96 114.759 15.28 114.839 14.512C114.935 13.728 115.007 12.928 115.055 12.112C115.119 11.28 115.167 10.464 115.199 9.664C115.231 8.864 115.247 8.136 115.247 7.48C115.247 7.256 115.191 7.12 115.079 7.072C114.983 7.008 114.823 6.976 114.599 6.976H102.791C102.711 6.976 102.631 6.952 102.551 6.904C102.471 6.84 102.431 6.768 102.431 6.688V4.96C102.431 4.864 102.471 4.792 102.551 4.744C102.631 4.696 102.711 4.672 102.791 4.672H116.399C116.911 4.672 117.303 4.808 117.575 5.08C117.863 5.352 118.007 5.784 118.007 6.376Z" fill="#353015"/>
<defs>
<clipPath id="clip0_7_69">
<rect width="27" height="27" fill="white" transform="translate(0 1)"/>
</clipPath>
</defs>
</svg>
